<svg width="128" height="128" viewBox="0 0 128 128" fill="none" xmlns="http://www.w3.org/2000/svg">
<rect x="17.8797" y="0.695126" width="92.2405" height="126.282" rx="11" fill="#888888" fill-opacity="0.2"/>
<path fill-rule="evenodd" clip-rule="evenodd" d="M79.9067 127.305H97.5198C104.191 127.305 109.599 121.897 109.599 115.226V85.4024C107.288 84.9791 105.242 83.7397 103.753 82.0044C103.311 81.4894 102.438 81.5267 102.042 82.0775C100.299 84.5 97.5377 86.1619 94.3473 86.2984C91.7055 86.4114 89.1254 85.4341 87.1747 83.5815C85.4337 81.9281 84.3212 79.6983 84.0191 77.2951C83.9586 76.8137 84.3384 76.403 84.8232 76.3823L85.5581 76.3509C86.0428 76.3301 86.4476 76.7077 86.5214 77.1872C86.7857 78.9064 87.6046 80.4945 88.8577 81.6846C90.3207 83.074 92.2558 83.807 94.2372 83.7222C97.5591 83.5801 100.179 81.2012 101.123 78.0259C101.186 77.8139 101.156 77.5862 101.051 77.3917L98.0899 71.9173C97.7811 71.3464 98.1767 70.6494 98.825 70.6217L105.979 70.3157C106.628 70.2879 107.081 70.9486 106.822 71.5438L104.34 77.251C104.252 77.4538 104.241 77.6832 104.322 77.889C105.272 80.3063 107.207 82.1479 109.599 82.7621V30.2513C99.7432 28.3631 89.5587 28.7726 79.8455 31.4798C78.5692 30.6265 77.2717 29.8054 75.9543 29.0171C74.4805 28.1469 72.9537 27.3698 71.3828 26.6906C69.8362 25.9665 68.232 25.3726 66.5868 24.915C65.133 24.4348 63.6142 24.1801 62.0833 24.1599H61.335C61.0791 24.1563 60.825 24.2025 60.5867 24.296C59.9477 25.9886 59.4249 27.7228 59.0221 29.4865C58.6547 31.2145 58.4778 32.9764 58.471 34.7451C58.471 36.1193 58.5867 37.4935 58.818 38.854C59.0425 40.2078 59.403 41.5343 59.9064 42.8133C57.5567 45.3472 55.7262 48.317 54.5186 51.5549C53.3164 54.7652 52.7101 58.1679 52.7294 61.5959C52.6343 66.4774 53.3046 71.3438 54.7159 76.0179C55.9472 79.8478 58.0016 83.3649 60.7296 86.3309C63.5527 89.2017 66.9541 91.4331 70.7025 92.8889C75.1447 94.5896 79.7979 95.678 84.5326 96.127C83.2106 97.3252 82.1619 98.7938 81.4578 100.433C80.7879 102.055 80.3306 103.756 80.0972 105.494C77.6011 106.69 74.8713 107.317 72.1039 107.331C69.5338 107.434 66.9974 106.72 64.8589 105.29C62.8074 103.77 61.0701 101.866 59.7432 99.6849C59.1493 98.7685 58.4851 97.8997 57.7567 97.0862C56.9883 96.2307 56.141 95.4495 55.2261 94.7528C54.3243 94.079 53.3358 93.5298 52.2873 93.1202C51.2556 92.6678 50.1415 92.4339 49.0151 92.4331C48.743 92.4399 48.4709 92.4671 48.1988 92.5011C47.8271 92.4999 47.4569 92.5456 47.0967 92.6371C46.7802 92.72 46.4808 92.8582 46.2123 93.0453C46.0903 93.1126 45.9882 93.2109 45.9166 93.3304C45.8449 93.4499 45.8061 93.5863 45.8042 93.7256C45.8327 94.053 45.9328 94.3701 46.0974 94.6546C46.262 94.9391 46.487 95.1839 46.7566 95.3719C47.3892 95.8753 47.913 96.2631 48.3348 96.5352L48.5389 96.678C49.4437 97.3787 50.3144 98.1338 51.1376 98.9434C51.8995 99.61 52.5866 100.365 53.1784 101.188C53.7907 101.998 54.3213 102.862 54.7499 103.78C55.2465 104.692 55.7703 105.739 56.3213 106.93C57.6003 110.154 59.8724 112.882 62.8112 114.719C65.8929 116.372 69.3487 117.195 72.8522 117.107C74.0359 117.107 75.2264 117.039 76.4033 116.903C77.5733 116.712 78.7366 116.515 79.9067 116.284V127.305ZM84.8453 49.4592C83.7155 48.3111 82.1832 47.6662 80.5855 47.6662C78.9877 47.6662 77.4554 48.3111 76.3256 49.4592C75.1959 50.6073 74.5612 52.1644 74.5612 53.788C74.5612 55.4116 75.1959 56.9688 76.3256 58.1168C77.4554 59.2649 78.9877 59.9099 80.5855 59.9099C82.1832 59.9099 83.7155 59.2649 84.8453 58.1168C85.975 56.9688 86.6098 55.4116 86.6098 53.788C86.6098 52.1644 85.975 50.6073 84.8453 49.4592Z" fill="#888888" fill-opacity="0.8"/>
</svg>
