<svg width="128" height="128" viewBox="0 0 128 128" fill="none" xmlns="http://www.w3.org/2000/svg">
<circle cx="64" cy="64" r="62" fill="white"/>
<path fill-rule="evenodd" clip-rule="evenodd" d="M50.4475 50.2228C49.3893 49.1475 47.9541 48.5434 46.4576 48.5434C44.9611 48.5434 43.5259 49.1475 42.4678 50.2228C41.4096 51.2981 40.8151 52.7566 40.8151 54.2773C40.8151 55.798 41.4096 57.2565 42.4678 58.3318C43.5259 59.4071 44.9611 60.0112 46.4576 60.0112C47.9541 60.0112 49.3893 59.4071 50.4475 58.3318C51.5057 57.2565 52.1001 55.798 52.1001 54.2773C52.1001 52.7566 51.5057 51.2981 50.4475 50.2228ZM84.3026 50.2228C83.2444 49.1475 81.8092 48.5434 80.3127 48.5434C78.8162 48.5434 77.381 49.1475 76.3229 50.2228C75.2647 51.2981 74.6702 52.7566 74.6702 54.2773C74.6702 55.798 75.2647 57.2565 76.3229 58.3318C77.381 59.4071 78.8162 60.0112 80.3127 60.0112C81.8092 60.0112 83.2444 59.4071 84.3026 58.3318C85.3608 57.2565 85.9552 55.798 85.9552 54.2773C85.9552 52.7566 85.3608 51.2981 84.3026 50.2228Z" fill="#9CA259"/>
<path d="M66.1055 73.99L68.4488 68.6028C68.6846 68.0608 68.2715 67.4592 67.681 67.4844L60.9073 67.7741C60.3168 67.7994 59.9566 68.4341 60.2378 68.954L63.0326 74.1214C63.1284 74.2986 63.1554 74.5058 63.0983 74.699C62.2168 77.6774 59.761 79.9097 56.6466 80.0429C54.7908 80.1223 52.9783 79.4357 51.608 78.1344C50.4288 77.0145 49.6602 75.5184 49.4163 73.8995C49.3505 73.4626 48.9817 73.1188 48.5403 73.1377L47.8064 73.1691C47.365 73.188 47.0191 73.5619 47.0732 74.0004C47.3521 76.26 48.3955 78.3572 50.0317 79.9111C51.8588 81.6463 54.2754 82.5616 56.7498 82.4558C59.7522 82.3274 62.3487 80.7566 63.9798 78.4701C64.3386 77.967 65.1326 77.9331 65.5331 78.4037C67.3534 80.5425 70.0746 81.8858 73.077 81.7574C75.5514 81.6516 77.881 80.5332 79.5533 78.6484C81.0508 76.9605 81.9113 74.7818 81.9962 72.5067C82.0127 72.0652 81.6362 71.7221 81.1947 71.741L80.4608 71.7724C80.0194 71.7913 79.6813 72.1653 79.6531 72.6062C79.5483 74.24 78.9102 75.7963 77.831 77.0127C76.5768 78.4264 74.8296 79.2652 72.9738 79.3445C69.8594 79.4777 67.2219 77.4633 66.0893 74.571C66.0159 74.3835 66.0252 74.1747 66.1055 73.99Z" fill="#9B5E5E"/>
<path fill-rule="evenodd" clip-rule="evenodd" d="M64 2.17359C29.8409 2.17359 2.17359 29.8409 2.17359 64C2.17359 91.3582 19.8714 114.466 44.4474 122.658C47.5387 123.199 48.698 121.344 48.698 119.721C48.698 118.253 48.6207 113.384 48.6207 108.206C33.0868 111.065 29.0681 104.419 27.8315 100.941C27.136 99.1638 24.122 93.6767 21.4943 92.2083C19.3304 91.0491 16.2391 88.1896 21.4171 88.1123C26.2859 88.035 29.7636 92.5947 30.9229 94.4495C36.4872 103.801 45.3748 101.173 48.9298 99.5502C49.4708 95.5315 51.0937 92.8266 52.8712 91.2809C39.1149 89.7352 24.7402 84.4027 24.7402 60.7541C24.7402 54.0305 27.136 48.4661 31.0774 44.1383C30.4592 42.5926 28.2952 36.2554 31.6957 27.7543C31.6957 27.7543 36.8737 26.1313 48.698 34.0915C53.6441 32.7004 58.8993 32.0048 64.1546 32.0048C69.4098 32.0048 74.6651 32.7004 79.6112 34.0915C91.4355 26.054 96.6134 27.7543 96.6134 27.7543C100.014 36.2554 97.85 42.5926 97.2317 44.1383C101.173 48.4661 103.569 53.9532 103.569 60.7541C103.569 84.48 89.117 89.7352 75.3606 91.2809C77.6018 93.213 79.5339 96.9226 79.5339 102.719C79.5339 110.988 79.4566 117.634 79.4566 119.721C79.4566 121.344 80.6158 123.276 83.7072 122.658C95.9808 118.514 106.646 110.626 114.202 100.104C121.757 89.5812 125.823 76.9542 125.826 64C125.826 29.8409 98.1591 2.17359 64 2.17359Z" fill="url(#paint0_radial)"/>
<defs>
<radialGradient id="paint0_radial" cx="0" cy="0" r="1" gradientUnits="userSpaceOnUse" gradientTransform="translate(2.41509 -17.5094) rotate(51.3402) scale(166.24 170.444)">
<stop stop-color="#E7EA5B"/>
<stop offset="0.223958" stop-color="#E4BD5C"/>
<stop offset="1" stop-color="#DE6860"/>
</radialGradient>
</defs>
</svg>
